# xmcd
#
# Track frame offsets: 
#        150
#        16471
#        33491
#        49904
#        67857
#        83762
#        102752
#
# Disc length: 1611 seconds
#
# Revision: 0
# Processed by: cddbd v1.5.2PL0 Copyright (c) Steve Scherf et al.
# Submitted via: ExactAudioCopy v0.95b4
#
DISCID=4e064907
DTITLE=Curtis Grimes - Doin' My Time
DYEAR=2011
DGENRE=Country
TTITLE0=Doin' My Time
TTITLE1=Lonely River
TTITLE2=Rain
TTITLE3=Irresponsible
TTITLE4=Jessie's Song
TTITLE5=Heaven
TTITLE6=A Girl Like You
EXTD=
EXTT0=
EXTT1=
EXTT2=
EXTT3=
EXTT4=
EXTT5=
EXTT6=
PLAYORDER=
